<svg width="24" height="24" viewBox="0 0 24 24" fill="none" xmlns="http://www.w3.org/2000/svg">
<path d="M10.5 1.875C10.5 1.57663 10.6185 1.29048 10.8295 1.0795C11.0405 0.868526 11.3266 0.75 11.625 0.75C11.9234 0.75 12.2095 0.868526 12.4205 1.0795C12.6315 1.29048 12.75 1.57663 12.75 1.875V10.094C13.267 10.256 13.77 10.476 14.25 10.753V3.375C14.25 3.07663 14.3685 2.79048 14.5795 2.5795C14.7905 2.36853 15.0766 2.25 15.375 2.25C15.6734 2.25 15.9595 2.36853 16.1705 2.5795C16.3815 2.79048 16.5 3.07663 16.5 3.375V14.312C15.8114 14.4286 15.1593 14.7036 14.5953 15.1154C14.0313 15.5273 13.5707 16.0646 13.25 16.685C14.493 16.0679 15.8623 15.7478 17.25 15.75C17.4489 15.75 17.6397 15.671 17.7803 15.5303C17.921 15.3897 18 15.1989 18 15V12.734C18.0035 11.8445 18.3586 10.9925 18.988 10.364C19.2006 10.1616 19.4839 10.0503 19.7774 10.0538C20.0709 10.0574 20.3514 10.1755 20.559 10.383C20.7666 10.5905 20.8849 10.8709 20.8887 11.1644C20.8924 11.4579 20.7813 11.7413 20.579 11.954C20.475 12.0576 20.3924 12.1807 20.3359 12.3163C20.2795 12.4518 20.2503 12.5972 20.25 12.744V15.75H20.245C20.1859 17.2585 19.5603 18.6893 18.493 19.757L16.757 21.493C15.6319 22.6179 14.106 23.2499 12.515 23.25H10.5C8.51088 23.25 6.60322 22.4598 5.1967 21.0533C3.79018 19.6468 3 17.7391 3 15.75V6.375C3 6.07663 3.11853 5.79048 3.3295 5.5795C3.54048 5.36853 3.82663 5.25 4.125 5.25C4.42337 5.25 4.70952 5.36853 4.9205 5.5795C5.13147 5.79048 5.25 6.07663 5.25 6.375V11.894C5.71 11.442 6.215 11.062 6.75 10.753V3.375C6.75 3.07663 6.86853 2.79048 7.0795 2.5795C7.29048 2.36853 7.57663 2.25 7.875 2.25C8.17337 2.25 8.45952 2.36853 8.6705 2.5795C8.88147 2.79048 9 3.07663 9 3.375V9.901C9.495 9.801 9.997 9.75 10.5 9.75V1.875Z" fill="#fff"/>
</svg>
