<svg width="34" height="34" viewBox="0 0 34 34" fill="none" xmlns="http://www.w3.org/2000/svg">
<g clip-path="url(#clip0_340_53)">
<path fill-rule="evenodd" clip-rule="evenodd" d="M17.0006 21.3028C17.5529 21.3028 18.0006 21.7505 18.0006 22.3028V29.3738C18.0006 29.9261 17.5529 30.3738 17.0006 30.3738C16.4483 30.3738 16.0006 29.9261 16.0006 29.3738V22.3028C16.0006 21.7505 16.4483 21.3028 17.0006 21.3028Z" fill="#fff"/>
<path fill-rule="evenodd" clip-rule="evenodd" d="M3.27206 17C3.27206 16.4477 3.71978 16 4.27206 16L29.7279 16C30.2802 16 30.7279 16.4477 30.7279 17C30.7279 17.5523 30.2802 18 29.7279 18L4.27206 18C3.71978 18 3.27206 17.5523 3.27206 17Z" fill="#fff"/>
<path d="M14.358 6.28266C16.0405 5.49367 17.9607 5.49369 19.6432 6.28264C19.928 6.41603 20.2638 6.57336 20.5131 6.75763C20.8077 6.97533 21.0235 7.24224 21.195 7.60601C21.5621 8.38495 21.3568 9.10245 21.1306 9.89319L20.687 11.4549C20.5267 12.0197 20.4215 12.3933 20.3688 12.6817C20.3176 12.9625 20.3348 13.0741 20.3533 13.1317C20.363 13.1621 20.4284 13.292 20.7538 13.6006C20.8141 13.6577 20.8796 13.7177 20.9508 13.7813C21.2954 14.0888 21.4677 14.2425 21.4186 14.3713C21.3695 14.5 21.1421 14.5 20.6872 14.5L13.281 14.5C12.8299 14.5 12.6044 14.5 12.5552 14.3717C12.5059 14.2434 12.6758 14.0903 13.0156 13.7842C13.0952 13.7125 13.1681 13.6451 13.2346 13.5813C13.389 13.4332 13.5939 13.2545 13.6417 13.1027C13.6594 13.0464 13.6764 12.9349 13.6245 12.6525C13.5713 12.3632 13.4656 11.9883 13.305 11.4226L12.8707 9.89319C12.6444 9.10246 12.4392 8.38497 12.8063 7.60603C12.9778 7.24227 13.1936 6.97535 13.4881 6.75766C13.7374 6.57339 14.0733 6.41605 14.358 6.28266Z" fill="#fff"/>
<path d="M24.2535 18.1002C24.308 18.3362 24.3766 18.6332 24.385 18.8966C24.3949 19.2079 24.3348 19.495 24.2019 19.8091C24.0665 20.1288 23.8968 20.3732 23.6634 20.5866C23.4649 20.7681 23.197 20.9367 22.9734 21.0775C21.2592 22.1573 19.1152 22.6802 17.0006 22.6802C14.886 22.6802 12.742 22.1573 11.0278 21.0775C10.8043 20.9368 10.5365 20.7683 10.338 20.5867C10.1046 20.3733 9.93495 20.1288 9.79965 19.809C9.66673 19.4948 9.60668 19.2076 9.6167 18.8963C9.62518 18.6328 9.69391 18.3359 9.74854 18.1C9.81822 17.7983 9.90869 17.511 10.0181 17.2373C10.063 17.125 10.0854 17.0688 10.1362 17.0344C10.187 17 10.2504 17 10.3771 17L23.6248 17C23.7513 17 23.8146 17 23.8654 17.0343C23.9162 17.0687 23.9386 17.1247 23.9836 17.2368C24.0931 17.5102 24.1837 17.7977 24.2535 18.1002Z" fill="#fff"/>
</g>
<defs>
<clipPath id="clip0_340_53">
<rect width="24" height="24" fill="#fff" transform="translate(0.0294189 17) rotate(-45)"/>
</clipPath>
</defs>
</svg>
