<?xml version="1.0" encoding="iso-8859-1"?>
<!-- Uploaded to: SVG Repo, www.svgrepo.com, Generator: SVG Repo Mixer Tools -->
<svg fill="#ffffff" height="800px" width="800px" version="1.1" id="Layer_1" xmlns="http://www.w3.org/2000/svg" xmlns:xlink="http://www.w3.org/1999/xlink" 
	 viewBox="0 0 512 512" xml:space="preserve">
<g>
	<g>
		<path d="M363.79,226.358h-3.184l-9.851-157.614c12.215-3.763,21.119-15.154,21.119-28.588V16.839
			C371.874,7.554,364.32,0,355.035,0h-198.07c-9.285,0-16.839,7.554-16.839,16.839v23.317c0,13.434,8.904,24.825,21.119,28.588
			l-9.851,157.614h-3.184c-28.231,0-51.2,22.969-51.2,51.2v64.674c0,4.465,3.618,8.084,8.084,8.084h122.269l20.622,154.668
			C248.522,509,251.948,512,256,512c4.052,0,7.478-3,8.014-7.016l20.622-154.668h122.269c4.466,0,8.084-3.62,8.084-8.084v-64.674
			C414.989,249.327,392.021,226.358,363.79,226.358z M156.295,40.156V16.839c0-0.371,0.301-0.67,0.67-0.67h198.07
			c0.371,0,0.67,0.301,0.67,0.67v23.317c0,7.587-6.152,13.739-13.739,13.739h-36.263c-4.465,0-8.084,3.62-8.084,8.084
			c0,4.465,3.62,8.084,8.084,8.084h28.934l9.769,156.295H167.594l9.769-156.295h92.695c4.465,0,8.084-3.62,8.084-8.084
			c0-4.465-3.62-8.084-8.084-8.084H170.034C162.446,53.895,156.295,47.743,156.295,40.156z M256,442.747l-12.324-92.432h24.648
			L256,442.747z M398.821,334.147H113.179V307.2h99.705c4.466,0,8.084-3.62,8.084-8.084s-3.619-8.084-8.084-8.084h-99.705v-13.474
			c0-19.316,15.715-35.032,35.032-35.032H363.79c19.317,0,35.032,15.716,35.032,35.032V334.147z"/>
	</g>
</g>
</svg>