<svg width="34" height="34" viewBox="0 0 34 34" fill="none" xmlns="http://www.w3.org/2000/svg">
<g clip-path="url(#clip0_340_54)">
<path opacity="0.4" d="M17 29.7279V22.6568" stroke="#fff" stroke-width="1.5" stroke-linecap="round" stroke-linejoin="round"/>
<path d="M22.7633 21.0114C19.5072 23.0625 14.4928 23.0625 11.2367 21.0114C10.3305 20.4406 10.0041 19.8012 10.2483 18.7439C10.5346 17.5042 11.2093 16.5264 12.1426 15.7448C13.4522 14.6481 14.107 14.0997 14.2507 13.6432C14.5793 12.5998 13.7917 11.0635 13.4998 10.0352C13.2299 9.08465 13.095 8.60937 13.3515 8.06523C13.608 7.5211 13.936 7.36728 14.592 7.05966C16.1261 6.34025 17.8738 6.34026 19.408 7.05965C20.064 7.36727 20.392 7.52108 20.6485 8.06522C20.905 8.60936 20.7701 9.08464 20.5002 10.0352C20.2066 11.0696 19.4086 12.6268 19.7438 13.6761C19.8905 14.1355 20.5358 14.6672 21.8263 15.7306C22.7752 16.5126 23.463 17.4882 23.7524 18.7438C23.9962 19.8015 23.6697 20.4404 22.7633 21.0114Z" stroke="#fff" stroke-width="1.5" stroke-linecap="round" stroke-linejoin="round"/>
</g>
<defs>
<clipPath id="clip0_340_54">
<rect width="24" height="24" fill="white" transform="translate(0.0294495 17) rotate(-45)"/>
</clipPath>
</defs>
</svg>
