<svg xmlns="http://www.w3.org/2000/svg" width="24" height="24" fill-rule="evenodd" stroke-linejoin="round" stroke-miterlimit="2" clip-rule="evenodd" id="unpin"><path fill="#ffffff" d="M555.83,469.245L551.293,464.707C550.903,464.317 550.903,463.683 551.293,463.293C551.683,462.903 552.317,462.903 552.707,463.293L568.694,479.28C569.085,479.671 569.085,480.304 568.694,480.694C568.304,481.085 567.671,481.085 567.28,480.694L562.586,476L561,476L561,481C561,481.552 560.552,482 560,482C559.448,482 559,481.552 559,481L559,476L555,476C554.448,476 554,475.552 554,475C554,475 554,473.255 554,472.07C554,471.067 554.501,470.131 555.336,469.574L555.83,469.245ZM557.273,470.687L560.586,474L556,474C556,474 556,472.07 556,472.07C556,471.736 556.167,471.424 556.445,471.238L557.273,470.687ZM555.534,463.291C556.075,462.511 556.978,462 558,462L562,462C563.657,462 565,463.343 565,465C565,466.306 564.165,467.418 563,467.829L563,468.465C563,468.465 564.664,469.574 564.664,469.574C565.499,470.131 566,471.067 566,472.07L566,473.757L561,468.757L561,467C561,466.448 561.448,466 562,466L562,466C562.552,466 563,465.552 563,465C563,464.448 562.552,464 562,464C562,464 558,464 558,464C557.523,464 557.124,464.334 557.024,464.781L555.534,463.291Z" transform="translate(-548 -460)"></path></svg>